# xmcd
# 
# Track frame offsets:
#     182
#     17102
#     36077
# 
# Disc length: 919
# 
# Revision: 6
# Processed by: cddbd v1.5.2PL0 Copyright (c) Steve Scherf et al.
# Submitted via: fre:ac v1.0.31
# 
DISCID=1b039503
DTITLE=Garbage - Special (Single Disc 2)
DYEAR=1998
DGENRE=Rock
TTITLE0=Special
TTITLE1=Medication (Acoustic Version)
TTITLE2=Push It (Victor Calderone Mix)
EXTD=
EXTT0=
EXTT1=
EXTT2=
PLAYORDER=
